<mxfile host="app.diagrams.net" modified="2024-04-20T21:01:24.434Z" agent="Mozilla/5.0 (X11; Linux x86_64; rv:109.0) Gecko/20100101 Firefox/115.0" etag="8pClh3YQCQ36MLPV9jYl" version="24.2.7" type="device">
  <diagram name="Page-1" id="UU4t--5ZA3ucGTDPSiou">
    <mxGraphModel dx="989" dy="505" grid="1" gridSize="10" guides="1" tooltips="1" connect="1" arrows="1" fold="1" page="1" pageScale="1" pageWidth="827" pageHeight="1169" math="0" shadow="0">
      <root>
        <mxCell id="0" />
        <mxCell id="1" parent="0" />
        <mxCell id="SRnnSWYTBnzh0Scxhy-3-16" value="R1 1kÎ©" style="pointerEvents=1;verticalLabelPosition=bottom;shadow=0;dashed=0;align=center;html=1;verticalAlign=top;shape=mxgraph.electrical.resistors.resistor_2;rotation=90;fillColor=#fff2cc;strokeColor=#d6b656;" vertex="1" parent="1">
          <mxGeometry x="565" y="220" width="100" height="20" as="geometry" />
        </mxCell>
        <mxCell id="SRnnSWYTBnzh0Scxhy-3-17" style="edgeStyle=orthogonalEdgeStyle;rounded=0;orthogonalLoop=1;jettySize=auto;html=1;fillColor=#fff2cc;strokeColor=#d6b656;endArrow=none;endFill=0;exitX=1;exitY=0.5;exitDx=0;exitDy=0;exitPerimeter=0;" edge="1" source="SRnnSWYTBnzh0Scxhy-3-16" target="SRnnSWYTBnzh0Scxhy-3-18" parent="1">
          <mxGeometry relative="1" as="geometry">
            <mxPoint x="615" y="280" as="sourcePoint" />
          </mxGeometry>
        </mxCell>
        <mxCell id="SRnnSWYTBnzh0Scxhy-3-18" value="P0" style="text;strokeColor=#d6b656;fillColor=#fff2cc;html=1;fontSize=12;fontStyle=0;verticalAlign=middle;align=center;" vertex="1" parent="1">
          <mxGeometry x="600" y="310" width="30" height="20" as="geometry" />
        </mxCell>
        <mxCell id="SRnnSWYTBnzh0Scxhy-3-20" value="Gnd" style="pointerEvents=1;verticalLabelPosition=bottom;shadow=0;dashed=0;align=center;html=1;verticalAlign=top;shape=mxgraph.electrical.signal_sources.signal_ground;" vertex="1" parent="1">
          <mxGeometry x="670" y="300" width="45" height="30" as="geometry" />
        </mxCell>
        <mxCell id="SRnnSWYTBnzh0Scxhy-3-36" value="" style="verticalLabelPosition=bottom;shadow=0;dashed=0;align=center;html=1;verticalAlign=top;shape=mxgraph.electrical.transistors.npn_transistor_1;rotation=-90;" vertex="1" parent="1">
          <mxGeometry x="567.5" y="60" width="95" height="100" as="geometry" />
        </mxCell>
        <mxCell id="SRnnSWYTBnzh0Scxhy-3-37" style="edgeStyle=orthogonalEdgeStyle;rounded=0;orthogonalLoop=1;jettySize=auto;html=1;entryX=0;entryY=0.5;entryDx=0;entryDy=0;entryPerimeter=0;endArrow=none;endFill=0;fillColor=#fff2cc;strokeColor=#d6b656;" edge="1" parent="1" source="SRnnSWYTBnzh0Scxhy-3-16" target="SRnnSWYTBnzh0Scxhy-3-36">
          <mxGeometry relative="1" as="geometry" />
        </mxCell>
        <mxCell id="SRnnSWYTBnzh0Scxhy-3-38" style="edgeStyle=orthogonalEdgeStyle;rounded=0;orthogonalLoop=1;jettySize=auto;html=1;exitX=0.7;exitY=1;exitDx=0;exitDy=0;exitPerimeter=0;entryX=0.5;entryY=0;entryDx=0;entryDy=0;entryPerimeter=0;endArrow=none;endFill=0;" edge="1" parent="1" source="SRnnSWYTBnzh0Scxhy-3-36" target="SRnnSWYTBnzh0Scxhy-3-20">
          <mxGeometry relative="1" as="geometry" />
        </mxCell>
        <mxCell id="SRnnSWYTBnzh0Scxhy-3-41" value="M" style="dashed=0;outlineConnect=0;align=center;html=1;shape=mxgraph.pid.engines.electric_motor_(dc);fontSize=45;fillColor=#f8cecc;strokeColor=#b85450;" vertex="1" parent="1">
          <mxGeometry x="480" y="180" width="80" height="80" as="geometry" />
        </mxCell>
        <mxCell id="SRnnSWYTBnzh0Scxhy-3-42" style="edgeStyle=orthogonalEdgeStyle;rounded=0;orthogonalLoop=1;jettySize=auto;html=1;exitX=0.5;exitY=0;exitDx=0;exitDy=0;exitPerimeter=0;entryX=0.7;entryY=0;entryDx=0;entryDy=0;entryPerimeter=0;fillColor=#f8cecc;strokeColor=#b85450;endArrow=none;endFill=0;" edge="1" parent="1" source="SRnnSWYTBnzh0Scxhy-3-41" target="SRnnSWYTBnzh0Scxhy-3-36">
          <mxGeometry relative="1" as="geometry" />
        </mxCell>
        <mxCell id="SRnnSWYTBnzh0Scxhy-3-43" value="+3V" style="text;strokeColor=#b85450;fillColor=#f8cecc;html=1;fontSize=12;fontStyle=0;verticalAlign=middle;align=center;" vertex="1" parent="1">
          <mxGeometry x="505" y="310" width="30" height="20" as="geometry" />
        </mxCell>
        <mxCell id="SRnnSWYTBnzh0Scxhy-3-44" style="edgeStyle=orthogonalEdgeStyle;rounded=0;orthogonalLoop=1;jettySize=auto;html=1;exitX=0.5;exitY=0;exitDx=0;exitDy=0;entryX=0.5;entryY=1;entryDx=0;entryDy=0;entryPerimeter=0;endArrow=none;endFill=0;fillColor=#f8cecc;strokeColor=#b85450;" edge="1" parent="1" source="SRnnSWYTBnzh0Scxhy-3-43" target="SRnnSWYTBnzh0Scxhy-3-41">
          <mxGeometry relative="1" as="geometry" />
        </mxCell>
      </root>
    </mxGraphModel>
  </diagram>
</mxfile>
